<?xml version="1.0" encoding="utf-8"?>
<!-- Generator: Adobe Illustrator 24.3.0, SVG Export Plug-In . SVG Version: 6.00 Build 0)  -->
<svg version="1.1" id="Layer_1" xmlns="http://www.w3.org/2000/svg" xmlns:xlink="http://www.w3.org/1999/xlink" x="0px" y="0px"
	 viewBox="0 0 286.17 43.38" style="enable-background:new 0 0 286.17 43.38;" xml:space="preserve">
<style type="text/css">
	.st0{fill:#F59F2C;}
	.st1{fill:#D6791D;}
	.st2{fill:#FAB545;}
	.st3{opacity:0.86;fill:#0F1223;}
	.st4{fill:#101325;}
	.st5{fill:#0E1121;}
	.st6{opacity:0.86;}
</style>
<g id="Group_521" transform="translate(746 4271)">
	<g id="Dropdown-2" transform="translate(0 0)">
		<path id="Path_36" class="st0" d="M-536.04-4250.28l-8.45,10.02l-2.51-2.99l5.93-7.04l-5.93-7.04l2.51-2.99L-536.04-4250.28z"/>
	</g>
	<g id="Dropdown-2-2" transform="translate(11.234 0)">
		<path id="Path_36-2" class="st0" d="M-536.04-4250.28l-8.45,10.02l-2.51-2.99l5.93-7.04l-5.93-7.04l2.51-2.99L-536.04-4250.28z"/>
	</g>
</g>
<g id="Group_522" transform="translate(621 4271)">
	<g id="Dropdown-2-3" transform="translate(0 0)">
		<path id="Path_36-3" class="st0" d="M-536.04-4250.28l-8.45,10.02l-2.51-2.99l5.93-7.04l-5.93-7.04l2.51-2.99L-536.04-4250.28z"/>
	</g>
	<g id="Dropdown-2-4" transform="translate(11.234 0)">
		<path id="Path_36-4" class="st0" d="M-536.04-4250.28l-8.45,10.02l-2.51-2.99l5.93-7.04l-5.93-7.04l2.51-2.99L-536.04-4250.28z"/>
	</g>
</g>
<g id="Group_1203" transform="translate(547 4261)">
	<g id="Group_138" transform="translate(0 0)">
		<g id="Group_136" transform="translate(17.756 0) rotate(14)">
			<path id="Path_612" class="st1" d="M-1546.89-4001.66l-12.77,18.51l-1.81,14.81l18.92,2.37l3.15-26.17L-1546.89-4001.66z"/>
		</g>
		<path id="Path_614" class="st2" d="M-514.7-4256.85h-13.41l-18.89,18.83l6.74,6.74l6.74,6.74l18.83-18.84L-514.7-4256.85
			L-514.7-4256.85z"/>
		<path id="Path_615" class="st0" d="M-514.7-4243.39v-13.46l-25.56,25.56l6.74,6.74L-514.7-4243.39z"/>
		<path id="Path_616" class="st3" d="M-521.77-4247.8l-0.99-0.99l-0.94-0.94l-2.12,2.12c-2.02-0.97-4.44-0.13-5.42,1.89
			c-0.75,1.55-0.44,3.4,0.78,4.62c0.55,0.52,0.57,1.38,0.05,1.92c-0.52,0.55-1.38,0.57-1.92,0.05s-0.57-1.38-0.05-1.92
			c0.01-0.01,0.02-0.02,0.02-0.02l-1.93-1.92c-1.21,1.22-1.51,3.07-0.77,4.62l-2.12,2.12l0.94,0.94l0.99,0.99l2.12-2.12
			c1.54,0.77,3.41,0.46,4.62-0.77c1.59-1.6,1.59-4.18,0-5.78c-0.01-0.01-0.01-0.01-0.02-0.02c-0.52-0.55-0.49-1.41,0.05-1.92
			c0.55-0.52,1.41-0.49,1.92,0.05c0.51,0.54,0.49,1.38-0.03,1.9l1.92,1.92c1.21-1.22,1.52-3.07,0.77-4.62L-521.77-4247.8z"/>
		<g id="Group_137" transform="translate(10.769 11.76)">
			<path id="Path_617" class="st4" d="M-537.35-4254.75l1.92,1.92c1.21-1.22,1.52-3.07,0.77-4.62l2.12-2.12l-0.99-0.99l-3.85,3.85
				c0.55,0.52,0.57,1.38,0.05,1.93C-537.33-4254.77-537.34-4254.76-537.35-4254.75L-537.35-4254.75z"/>
			<path id="Path_618" class="st5" d="M-543.89-4248.21c1.54,0.77,3.41,0.46,4.62-0.77c1.59-1.6,1.59-4.18,0-5.78
				c-0.01-0.01-0.01-0.01-0.02-0.02l-1.92,1.92c0.55,0.52,0.57,1.38,0.05,1.92c-0.52,0.55-1.38,0.57-1.92,0.05
				c-0.02-0.02-0.04-0.03-0.05-0.05l-3.85,3.85l0.99,0.99L-543.89-4248.21z"/>
		</g>
	</g>
</g>
<g id="Group_1228" transform="translate(-3.246 -1)">
	<path id="Path_619" class="st1" d="M141.08,27.65v11.23c0,0.59,0.48,1.07,1.07,1.06c0.33,0,0.65-0.16,0.85-0.42l5.49-7.31
		l1.67-0.86l18.11-25.6l0.34-1.99l-2.95,1.62l-24.59,21.35L141.08,27.65z"/>
	<path id="Path_620" class="st0" d="M167.52,3.58c-0.05,0.02-34.34,17.24-34.39,17.26c-0.53,0.26-0.74,0.91-0.48,1.44
		c0.09,0.18,0.22,0.33,0.39,0.43l8.04,4.95l27.53-23.89l0,0C168.31,3.49,167.88,3.42,167.52,3.58z"/>
	<path id="Path_621" class="st0" d="M168.65,3.8c-0.02-0.02-0.02-0.04-0.04-0.05l-0.21,0.3l-19.91,28.16l12.32,7.58
		c0.5,0.31,1.16,0.15,1.47-0.35c0.07-0.11,0.12-0.23,0.14-0.36l6.55-34.31C169.03,4.41,168.91,4.05,168.65,3.8z"/>
</g>
<g id="Group_1205" transform="translate(798.484 4260.313)">
	<path id="Path_622" class="st2" d="M-531.09-4217.61"/>
	<g id="Group_142" transform="translate(4.516 3.687)">
		<g id="Group_141">
			<path id="Path_623" class="st0" d="M-535.38-4225.23c-9.56,0-17.32-7.75-17.32-17.32c0-9.56,7.75-17.32,17.32-17.32
				c9.56,0,17.32,7.75,17.32,17.32C-518.07-4232.99-525.82-4225.24-535.38-4225.23z"/>
		</g>
	</g>
	<path id="Path_624" class="st1" d="M-514.73-4239.09c-0.01-9.03-7.33-16.35-16.36-16.36v32.71
		C-522.06-4222.74-514.74-4230.06-514.73-4239.09z"/>
	<g id="Cent" transform="translate(13.926 8.704)" class="st6">
		<path id="Path_625" class="st5" d="M-543.76-4248.96v-4.97c1.45,0.35,2.52,1.29,2.52,2.36c0.06,0.7,0.67,1.21,1.37,1.15
			c0.61-0.05,1.1-0.54,1.15-1.15c0-2.43-2.16-4.46-5.03-4.93v-1.36c-0.06-0.69-0.67-1.21-1.37-1.15c-0.61,0.05-1.1,0.54-1.15,1.15
			v1.36c-2.87,0.47-5.03,2.5-5.03,4.93s2.16,4.46,5.03,4.93v4.97c-1.45-0.35-2.52-1.29-2.52-2.36c0.06-0.69-0.45-1.31-1.14-1.37
			c-0.69-0.06-1.31,0.45-1.37,1.14c-0.01,0.08-0.01,0.15,0,0.23c0,2.43,2.16,4.46,5.03,4.93v1.38c-0.06,0.69,0.46,1.31,1.15,1.37
			s1.31-0.46,1.37-1.15c0.01-0.07,0.01-0.14,0-0.21v-1.38c2.87-0.47,5.03-2.5,5.03-4.93S-540.89-4248.49-543.76-4248.96
			L-543.76-4248.96z M-548.79-4251.58c0-1.07,1.07-2,2.52-2.36v4.71C-547.72-4249.58-548.79-4250.5-548.79-4251.58z
			 M-543.76-4241.67v-4.71c1.45,0.35,2.52,1.29,2.52,2.36C-541.24-4242.95-542.31-4242.02-543.76-4241.67L-543.76-4241.67z"/>
	</g>
	<path id="Path_626" class="st5" d="M-529.83-4229.02v-1.38c2.87-0.47,5.03-2.5,5.03-4.93c0-2.43-2.16-4.46-5.03-4.93v-4.97
		c1.45,0.35,2.52,1.29,2.52,2.36c0.06,0.69,0.67,1.21,1.37,1.15c0.61-0.05,1.1-0.54,1.15-1.15c0-2.43-2.16-4.46-5.03-4.93v-1.36
		c0-0.7-0.57-1.26-1.26-1.26l0,0v22.66C-530.39-4227.77-529.83-4228.33-529.83-4229.02z M-529.83-4237.68
		c1.45,0.35,2.52,1.29,2.52,2.36c0,1.07-1.07,2-2.52,2.36V-4237.68z"/>
</g>
</svg>
