<?xml version="1.0" encoding="utf-8"?>
<!-- Generator: Adobe Illustrator 24.3.0, SVG Export Plug-In . SVG Version: 6.00 Build 0)  -->
<svg version="1.1" id="Layer_1" xmlns="http://www.w3.org/2000/svg" xmlns:xlink="http://www.w3.org/1999/xlink" x="0px" y="0px"
	 viewBox="0 0 30.93 30.92" style="enable-background:new 0 0 30.93 30.92;" xml:space="preserve">
<style type="text/css">
	.st0{fill:#F59F2C;}
</style>
<g>
	<path id="Path_347" class="st0" d="M12.25,0C5.49,0,0.01,5.47,0,12.23c-0.01,6.76,5.47,12.24,12.22,12.25
		c2.81,0,5.53-0.96,7.71-2.73l8.98,8.98c0.25,0.25,0.66,0.25,0.91,0c0,0,0,0,0,0l0.91-0.91c0.25-0.25,0.25-0.66,0-0.91c0,0,0,0,0,0
		l-8.98-8.98c4.25-5.24,3.45-12.94-1.8-17.19C17.78,0.96,15.06,0,12.25,0L12.25,0z M12.25,21.9c-5.33,0-9.66-4.33-9.66-9.66
		c0-5.33,4.33-9.66,9.66-9.66c5.33,0,9.66,4.32,9.66,9.66C21.9,17.58,17.58,21.89,12.25,21.9L12.25,21.9z"/>
</g>
</svg>
