<?xml version="1.0" encoding="utf-8"?>
<!-- Generator: Adobe Illustrator 24.3.0, SVG Export Plug-In . SVG Version: 6.00 Build 0)  -->
<svg version="1.1" id="Layer_1" xmlns="http://www.w3.org/2000/svg" xmlns:xlink="http://www.w3.org/1999/xlink" x="0px" y="0px"
	 viewBox="0 0 62.33 57.33" style="enable-background:new 0 0 62.33 57.33;" xml:space="preserve">
<style type="text/css">
	.st0{fill:#F59F2C;}
	.st1{fill:#161615;}
	.st2{fill:#FFFFFF;}
	.st3{font-family:'Roboto-Bold';}
	.st4{font-size:13.6028px;}
</style>
<g>
	<circle id="Ellipse_168" class="st0" cx="27.21" cy="30.12" r="27.21"/>
	<g id="Group_1593" transform="translate(-1617 -175.424)">
		<g id="Group_52" transform="translate(1633 192.351)">
			<path id="Path_334" class="st1" d="M12.44,18.09c-0.12-0.04-0.24-0.09-0.36-0.13V15.8c0.19,0.06,0.38,0.14,0.55,0.26
				c0.22,0.15,0.51,0.1,0.66-0.12c0.14-0.2,0.1-0.48-0.09-0.64c-0.34-0.24-0.72-0.4-1.12-0.47v-0.48c0-0.26-0.21-0.48-0.48-0.48
				s-0.48,0.21-0.48,0.48l0,0v0.47c-0.08,0.02-0.16,0.04-0.24,0.06c-0.68,0.21-1.19,0.79-1.31,1.5c-0.14,0.61,0.07,1.25,0.55,1.66
				c0.31,0.23,0.65,0.42,1,0.57v2.76c-0.38-0.02-0.74-0.15-1.04-0.38c-0.22-0.14-0.52-0.08-0.66,0.14
				c-0.14,0.22-0.08,0.52,0.14,0.66c0.46,0.33,1,0.52,1.57,0.54v0.49c0,0.26,0.21,0.48,0.48,0.48s0.48-0.21,0.48-0.48v-0.54
				c0.91-0.21,1.6-0.95,1.75-1.87C14.02,19.38,13.42,18.39,12.44,18.09L12.44,18.09z M10.71,17.28c-0.2-0.19-0.27-0.47-0.2-0.73
				c0.06-0.34,0.29-0.63,0.62-0.75v1.75C10.98,17.47,10.84,17.38,10.71,17.28z M12.89,20.24c-0.08,0.46-0.38,0.85-0.81,1.03v-2.3
				l0.05,0.02C12.67,19.14,13,19.68,12.89,20.24z"/>
			<path id="Path_335" class="st1" d="M18.7,9.4c0.32-0.01,0.64-0.06,0.96-0.15c1.71-0.47,2.71-2.24,2.24-3.95c0,0,0,0,0,0
				c-0.23-0.81-0.78-1.5-1.52-1.92c-0.73-0.43-1.61-0.54-2.43-0.32c-0.24,0.07-0.47,0.15-0.69,0.26c0.13-0.3,0.21-0.62,0.22-0.94
				c0-1.58-1.28-2.86-2.86-2.87c-0.59,0.06-1.15,0.29-1.62,0.66c-0.4,0.32-0.88,0.53-1.39,0.6c-0.52-0.07-1.02-0.28-1.43-0.61
				c-0.45-0.36-1-0.59-1.58-0.65c-1.58,0-2.86,1.28-2.86,2.87C5.74,2.7,5.8,3.01,5.91,3.31C5.7,3.21,5.48,3.13,5.26,3.07
				C4.44,2.85,3.56,2.96,2.83,3.39C2.09,3.8,1.54,4.49,1.31,5.31C0.84,7.01,1.84,8.78,3.54,9.25c0,0,0,0,0,0
				C3.86,9.34,4.18,9.39,4.5,9.4c-4.11,3.86-5.83,9.63-4.53,15.11c0.39,1.32,1.58,2.24,2.95,2.28h17.35
				c1.38-0.04,2.57-0.96,2.95-2.28C24.53,19.03,22.81,13.27,18.7,9.4L18.7,9.4z M6.3,6.67c-0.49,0.1-0.98,0.16-1.48,0.17
				c-0.2,0.01-0.4-0.02-0.59-0.06C3.89,6.69,3.69,6.33,3.78,5.99c0.09-0.34,0.45-0.54,0.79-0.45C5.22,5.79,5.81,6.18,6.3,6.67
				L6.3,6.67z M18.63,5.54c0.34-0.08,0.69,0.11,0.79,0.45c0.09,0.34-0.1,0.69-0.45,0.79c-0.19,0.05-0.4,0.07-0.6,0.06
				c-0.5-0.01-0.99-0.07-1.48-0.17C17.39,6.18,17.98,5.79,18.63,5.54L18.63,5.54z M8.6,0.64c0.35,0.08,0.68,0.24,0.96,0.47
				c1.14,1.05,2.89,1.06,4.04,0.02c0.3-0.24,0.64-0.4,1.01-0.49c0.96,0,1.74,0.78,1.74,1.74c0,0,0,0,0,0c0,0.21-0.14,0.88-1.43,2.63
				l0.58,0.51L15.3,5.71l-1.78,0.93H9.84L8.76,6.07L7.85,4.64C7.34,3.98,6.99,3.21,6.86,2.38C6.87,1.42,7.64,0.65,8.6,0.64L8.6,0.64
				z M22.15,24.23c-0.26,0.82-1,1.4-1.87,1.44H2.93c-0.86-0.04-1.61-0.62-1.87-1.44c-0.25-1.07-0.38-2.17-0.39-3.27
				c0-4.87,2.36-9.5,6.01-11.79L7.7,8.53l2.53-0.26l-3.1,4.7c-0.22,0.33-0.13,0.78,0.2,1c0.12,0.08,0.26,0.12,0.4,0.12
				c0.24,0,0.47-0.12,0.6-0.32l3.27-4.96l3.27,4.96c0.22,0.33,0.67,0.42,1,0.21c0.33-0.22,0.42-0.67,0.21-1l0,0l-3.03-4.58
				l2.65,0.27l0.82,0.51c3.65,2.29,6.01,6.91,6.01,11.79C22.53,22.06,22.4,23.16,22.15,24.23L22.15,24.23z"/>
		</g>
	</g>
	<g id="Group_1594" transform="translate(-1619 -187)">
		<ellipse id="Ellipse_4" class="st2" cx="1669.9" cy="198.43" rx="11.43" ry="11.43"/>
		<text transform="matrix(1 0 0 1 1666.4225 202.4741)" class="st0 st3 st4">2</text>
	</g>
</g>
</svg>
